<svg width="53" height="53" viewBox="0 0 53 53" fill="none" xmlns="http://www.w3.org/2000/svg">
<rect width="53" height="53" rx="7" fill="black"/>
<path d="M48.5 14.54V38.459L27.5 50.4238L6.5 38.459V14.54L27.5 2.5752L48.5 14.54Z" stroke="#E5FB21"/>
<path d="M10 16.2986L10.5184 16L27.5 25.8747L44.4816 16L45 16.311V16.9232L28.0224 26.7955V46.6898L27.4999 47L26.9776 46.6899V26.7955L10 16.9232V16.2986Z" fill="#E5FB21"/>
<path d="M38 24L45.7942 28.5V37.5L38 42L30.2058 37.5V28.5L38 24Z" fill="#E5FB21"/>
<path d="M17 24L24.7942 28.5V37.5L17 42L9.20577 37.5V28.5L17 24Z" fill="#E5FB21"/>
<path d="M27 6L34.7942 10.5V19.5L27 24L19.2058 19.5V10.5L27 6Z" fill="#E5FB21"/>
</svg>
