<svg width="221" height="49" viewBox="0 0 221 49" fill="none" xmlns="http://www.w3.org/2000/svg" role="img" aria-label="Animated AlphaLearn fluid glass outline logo">
<defs>
<path id="al-logo-fluid-hex" d="M45.2178 12.5381V36.4609L24.5 48.4229L3.78223 36.4609V12.5381L24.5 0.576172L45.2178 12.5381Z"/>
<clipPath id="al-logo-fluid-clip">
<use href="#al-logo-fluid-hex"/>
</clipPath>
<radialGradient id="al-logo-fluid-glass" cx="34%" cy="21%" r="82%">
<stop offset="0" stop-color="#fff" stop-opacity=".82"/>
<stop offset=".25" stop-color="#ffc8ff" stop-opacity=".58"/>
<stop offset=".56" stop-color="#9f8cff" stop-opacity=".47"/>
<stop offset="1" stop-color="#5b6dff" stop-opacity=".34"/>
</radialGradient>
<radialGradient id="al-logo-fluid-edge" cx="48%" cy="42%" r="63%">
<stop offset=".54" stop-color="#fff" stop-opacity="0"/>
<stop offset=".82" stop-color="#f5c6ff" stop-opacity=".32"/>
<stop offset="1" stop-color="#84a2ff" stop-opacity=".48"/>
</radialGradient>
<linearGradient id="al-logo-fluid-violet" x1="3" y1="6" x2="46" y2="43">
<stop stop-color="#fff4ff" stop-opacity=".8"/>
<stop offset=".38" stop-color="#ff83f3" stop-opacity=".64"/>
<stop offset=".72" stop-color="#8e84ff" stop-opacity=".5"/>
<stop offset="1" stop-color="#65e2ff" stop-opacity=".35"/>
</linearGradient>
<linearGradient id="al-logo-fluid-blue" x1="1" y1="43" x2="47" y2="8">
<stop stop-color="#ffc8f7" stop-opacity=".38"/>
<stop offset=".36" stop-color="#8a83ff" stop-opacity=".66"/>
<stop offset=".77" stop-color="#69bfff" stop-opacity=".56"/>
<stop offset="1" stop-color="#fff" stop-opacity=".5"/>
</linearGradient>
<filter id="al-logo-fluid-blur" x="-35%" y="-35%" width="170%" height="170%">
<feGaussianBlur stdDeviation="2.7"/>
</filter>
<style>
.al-logo-spin-a,.al-logo-spin-b,.al-logo-shine{transform-box:view-box;transform-origin:24.5px 24.5px}
.al-logo-spin-a{animation:alLogoSpinA 9s linear infinite}
.al-logo-spin-b{animation:alLogoSpinB 13s linear infinite}
.al-logo-shine{animation:alLogoShine 4.8s ease-in-out infinite}
@keyframes alLogoSpinA{to{transform:rotate(360deg)}}
@keyframes alLogoSpinB{to{transform:rotate(-360deg)}}
@keyframes alLogoShine{50%{transform:rotate(10deg) translate(.7px,-.35px);opacity:.86}}
@media (prefers-reduced-motion:reduce){.al-logo-spin-a,.al-logo-spin-b,.al-logo-shine{animation:none}}
</style>
</defs>
<g clip-path="url(#al-logo-fluid-clip)">
<use href="#al-logo-fluid-hex" fill="url(#al-logo-fluid-glass)"/>
<g class="al-logo-spin-a" filter="url(#al-logo-fluid-blur)" opacity=".94">
<ellipse cx="23.8" cy="16.4" rx="25" ry="9.1" fill="url(#al-logo-fluid-violet)" transform="rotate(15 24.5 24.5)"/>
<ellipse cx="26" cy="31.7" rx="26.5" ry="10.2" fill="url(#al-logo-fluid-blue)" transform="rotate(-12 24.5 24.5)"/>
<path fill="none" stroke="#fff" stroke-opacity=".34" stroke-width="3.8" stroke-linecap="round" d="M-1 28.5c7.8-7.2 15-6.4 22-2 7.8 4.8 14.5 4.3 23-3.1"/>
</g>
<g class="al-logo-spin-b" filter="url(#al-logo-fluid-blur)" opacity=".72">
<ellipse cx="16.8" cy="25.8" rx="24" ry="7.4" fill="#ff8bf6" opacity=".62" transform="rotate(-31 24.5 24.5)"/>
<ellipse cx="31.6" cy="23.6" rx="23.5" ry="7.2" fill="#68dbff" opacity=".54" transform="rotate(27 24.5 24.5)"/>
<path fill="none" stroke="#756fff" stroke-opacity=".38" stroke-width="5.1" stroke-linecap="round" d="M-2 20.2c11 7 18.8 7.4 28.3.8 6.6-4.5 12-4.8 22-.4"/>
</g>
<use href="#al-logo-fluid-hex" fill="url(#al-logo-fluid-edge)" opacity=".5"/>
</g>
<g class="al-logo-shine" clip-path="url(#al-logo-fluid-clip)">
<path fill="#fff" fill-opacity=".23" d="M12 11.8c6.3-4.4 17.1-4.6 24.5.9 3.4 2.5 4.5 5.4 3 8.4-6.7-6.7-17.3-9-28.3-4.8z" filter="url(#al-logo-fluid-blur)"/>
<ellipse cx="33.3" cy="18.2" rx="4.7" ry="7.6" fill="#fff" opacity=".29" transform="rotate(-45 33.3 18.2)" filter="url(#al-logo-fluid-blur)"/>
</g>
<path d="M73.984 36V35.64C74.056 35.64 74.224 35.616 74.488 35.568C74.776 35.52 75.064 35.436 75.352 35.316C75.664 35.196 75.928 35.028 76.144 34.812C76.384 34.596 76.504 34.32 76.504 33.984C76.504 33.768 76.432 33.42 76.288 32.94C76.168 32.436 75.988 31.836 75.748 31.14C75.508 30.42 75.232 29.628 74.92 28.764C74.608 27.9 74.272 27 73.912 26.064H64.336C63.976 26.976 63.628 27.852 63.292 28.692C62.956 29.508 62.62 30.336 62.284 31.176C61.78 32.472 61.528 33.384 61.528 33.912C61.528 34.224 61.624 34.488 61.816 34.704C62.008 34.896 62.248 35.064 62.536 35.208C62.848 35.328 63.172 35.424 63.508 35.496C63.868 35.544 64.204 35.592 64.516 35.64V36H56.848V35.604C57.472 35.532 58 35.364 58.432 35.1C58.888 34.836 59.152 34.656 59.224 34.56C59.392 34.392 59.668 33.996 60.052 33.372C60.436 32.748 60.904 31.824 61.456 30.6C61.96 29.472 62.524 28.188 63.148 26.748C63.772 25.308 64.408 23.832 65.056 22.32C65.728 20.784 66.388 19.248 67.036 17.712C67.684 16.152 68.296 14.7 68.872 13.356L68.512 12.564C68.944 12.372 69.328 12.144 69.664 11.88C70.024 11.616 70.336 11.34 70.6 11.052C70.864 10.764 71.08 10.488 71.248 10.224C71.44 9.96 71.584 9.744 71.68 9.576H71.968C72.712 11.568 73.42 13.464 74.092 15.264C74.764 17.04 75.4 18.756 76 20.412C76.624 22.068 77.224 23.676 77.8 25.236C78.376 26.772 78.952 28.296 79.528 29.808C79.792 30.552 80.032 31.176 80.248 31.68C80.488 32.16 80.752 32.712 81.04 33.336C81.088 33.432 81.196 33.6 81.364 33.84C81.532 34.08 81.748 34.332 82.012 34.596C82.3 34.836 82.648 35.052 83.056 35.244C83.464 35.436 83.944 35.544 84.496 35.568V36H73.984ZM69.268 14.184C69.124 14.496 68.908 14.988 68.62 15.66C68.356 16.332 68.02 17.148 67.612 18.108C67.204 19.068 66.748 20.16 66.244 21.384C65.764 22.584 65.236 23.892 64.66 25.308H73.624C73.216 24.228 72.796 23.148 72.364 22.068C71.956 20.988 71.548 19.956 71.14 18.972C70.756 17.964 70.396 17.052 70.06 16.236C69.748 15.396 69.484 14.712 69.268 14.184ZM91.9877 36H83.5997V35.604C84.7037 35.532 85.4357 35.424 85.7957 35.28C86.1557 35.112 86.3357 34.836 86.3357 34.452V13.752C86.3357 13.56 86.3117 13.416 86.2637 13.32C86.2397 13.224 86.1437 13.116 85.9757 12.996C85.7597 12.876 85.4357 12.696 85.0037 12.456C84.5717 12.192 84.2117 12 83.9237 11.88V11.664L89.0717 9.972H89.3237V34.632C89.3237 34.872 89.3717 35.052 89.4677 35.172C89.5877 35.292 89.7557 35.376 89.9717 35.424C90.1877 35.472 90.4637 35.508 90.7997 35.532C91.1357 35.532 91.5317 35.556 91.9877 35.604V36ZM110.711 26.46C110.711 27.804 110.471 29.052 109.991 30.204C109.535 31.356 108.875 32.352 108.011 33.192C107.147 34.008 106.091 34.656 104.843 35.136C103.595 35.592 102.191 35.82 100.631 35.82C100.199 35.82 99.767 35.808 99.335 35.784C98.927 35.76 98.495 35.7 98.039 35.604C98.039 35.94 98.039 36.432 98.039 37.08C98.063 37.728 98.075 38.412 98.075 39.132C98.099 39.852 98.111 40.56 98.111 41.256C98.111 41.952 98.111 42.516 98.111 42.948C98.159 43.164 98.291 43.32 98.507 43.416C98.723 43.536 98.975 43.62 99.263 43.668C99.575 43.74 99.887 43.788 100.199 43.812C100.535 43.836 100.823 43.86 101.063 43.884V44.28H92.207V43.884C92.447 43.86 92.735 43.812 93.071 43.74C93.407 43.692 93.719 43.62 94.007 43.524C94.319 43.428 94.571 43.308 94.763 43.164C94.979 43.02 95.087 42.852 95.087 42.66V22.716C95.087 22.524 95.063 22.38 95.015 22.284C94.991 22.188 94.895 22.08 94.727 21.96C94.511 21.84 94.163 21.672 93.683 21.456C93.203 21.216 92.819 21.036 92.531 20.916V20.7L97.823 18.612H98.039V22.644L98.075 22.716C98.411 22.26 98.783 21.792 99.191 21.312C99.599 20.832 100.055 20.4 100.559 20.016C101.063 19.608 101.603 19.272 102.179 19.008C102.779 18.744 103.427 18.612 104.123 18.612C105.251 18.612 106.223 18.84 107.039 19.296C107.879 19.752 108.563 20.352 109.091 21.096C109.643 21.84 110.051 22.68 110.315 23.616C110.579 24.552 110.711 25.5 110.711 26.46ZM107.471 27.504C107.471 26.592 107.363 25.74 107.147 24.948C106.931 24.156 106.595 23.472 106.139 22.896C105.707 22.296 105.143 21.828 104.447 21.492C103.775 21.132 102.983 20.952 102.071 20.952C101.447 20.952 100.883 21.072 100.379 21.312C99.899 21.528 99.479 21.792 99.119 22.104C98.783 22.392 98.519 22.692 98.327 23.004C98.159 23.316 98.075 23.544 98.075 23.688C98.075 24.168 98.063 24.684 98.039 25.236C98.039 25.764 98.039 26.232 98.039 26.64C98.039 27.624 98.039 28.392 98.039 28.944C98.039 29.496 98.051 30.048 98.075 30.6C98.123 31.104 98.207 31.632 98.327 32.184C98.447 32.712 98.651 33.204 98.939 33.66C99.227 34.092 99.623 34.452 100.127 34.74C100.631 35.004 101.279 35.136 102.071 35.136C102.767 35.136 103.439 34.944 104.087 34.56C104.735 34.176 105.311 33.648 105.815 32.976C106.319 32.304 106.715 31.5 107.003 30.564C107.315 29.628 107.471 28.608 107.471 27.504ZM129.941 36H122.526V35.604C123.174 35.556 123.714 35.484 124.146 35.388C124.578 35.268 124.794 35.016 124.794 34.632V25.632C124.794 24.936 124.746 24.288 124.65 23.688C124.554 23.088 124.374 22.572 124.11 22.14C123.87 21.708 123.534 21.372 123.102 21.132C122.67 20.892 122.118 20.772 121.446 20.772C120.582 20.772 119.85 20.928 119.25 21.24C118.65 21.552 118.17 21.972 117.81 22.5C117.762 22.572 117.69 22.728 117.594 22.968C117.522 23.184 117.486 23.388 117.486 23.58V34.632C117.486 34.848 117.546 35.016 117.666 35.136C117.786 35.256 117.942 35.352 118.134 35.424C118.326 35.472 118.542 35.508 118.782 35.532C119.022 35.556 119.262 35.592 119.502 35.64V36H112.338V35.64C112.89 35.592 113.382 35.508 113.813 35.388C114.27 35.244 114.498 34.944 114.498 34.488V14.04C114.498 13.848 114.474 13.704 114.426 13.608C114.402 13.512 114.306 13.404 114.138 13.284C113.946 13.116 113.682 12.96 113.346 12.816C113.034 12.648 112.722 12.468 112.41 12.276V12.06L117.234 9.864H117.522L117.414 22.356L117.486 22.392C117.654 22.056 117.906 21.672 118.242 21.24C118.602 20.808 119.046 20.4 119.574 20.016C120.102 19.632 120.702 19.308 121.374 19.044C122.07 18.756 122.826 18.612 123.642 18.612C124.434 18.612 125.094 18.756 125.622 19.044C126.174 19.308 126.606 19.692 126.918 20.196C127.254 20.676 127.482 21.252 127.602 21.924C127.746 22.596 127.818 23.328 127.818 24.12V34.74C127.818 34.908 127.89 35.052 128.034 35.172C128.178 35.292 128.358 35.388 128.574 35.46C128.79 35.508 129.018 35.556 129.258 35.604C129.498 35.628 129.725 35.652 129.941 35.676V36ZM147.056 32.472C147.032 32.928 146.924 33.372 146.732 33.804C146.54 34.236 146.288 34.632 145.976 34.992C145.664 35.328 145.292 35.592 144.86 35.784C144.452 35.952 143.996 36.036 143.492 36.036C142.676 36.036 141.944 35.796 141.296 35.316C140.672 34.836 140.36 33.996 140.36 32.796L140.288 32.76C140.096 33.072 139.832 33.42 139.496 33.804C139.184 34.188 138.8 34.548 138.344 34.884C137.912 35.22 137.42 35.496 136.868 35.712C136.34 35.904 135.752 36 135.104 36C134.72 36 134.324 35.952 133.916 35.856C133.532 35.736 133.172 35.544 132.836 35.28C132.524 34.992 132.26 34.632 132.044 34.2C131.852 33.768 131.756 33.24 131.756 32.616C131.756 31.944 132.02 31.296 132.548 30.672C133.1 30.048 133.772 29.484 134.564 28.98C135.356 28.476 136.052 28.044 136.652 27.684C137.276 27.324 137.816 27.024 138.272 26.784C138.728 26.52 139.124 26.304 139.46 26.136C139.82 25.944 140.12 25.776 140.36 25.632V21.924C140.36 21.876 140.312 21.768 140.216 21.6C140.144 21.408 140 21.216 139.784 21.024C139.592 20.832 139.316 20.664 138.956 20.52C138.596 20.352 138.128 20.268 137.552 20.268C137.168 20.268 136.784 20.34 136.4 20.484C136.04 20.604 135.716 20.772 135.428 20.988C135.14 21.18 134.912 21.384 134.744 21.6C134.576 21.792 134.492 21.96 134.492 22.104V23.724C134.492 24.06 134.312 24.36 133.952 24.624C133.616 24.888 133.244 25.02 132.836 25.02C132.452 25.02 132.116 24.888 131.828 24.624C131.564 24.336 131.432 24.012 131.432 23.652C131.432 23.364 131.504 23.1 131.648 22.86C131.792 22.62 131.972 22.404 132.188 22.212C132.404 22.02 132.632 21.852 132.872 21.708C133.136 21.564 133.364 21.432 133.556 21.312C134.18 20.952 134.816 20.604 135.464 20.268C136.112 19.932 136.724 19.644 137.3 19.404C137.9 19.164 138.44 18.972 138.92 18.828C139.424 18.684 139.832 18.612 140.144 18.612C140.768 18.612 141.356 18.78 141.908 19.116C142.46 19.428 142.856 19.824 143.096 20.304C143.192 20.472 143.252 20.772 143.276 21.204C143.3 21.612 143.312 22.02 143.312 22.428C143.312 23.292 143.3 24.072 143.276 24.768C143.276 25.464 143.276 26.136 143.276 26.784C143.276 27.432 143.264 28.104 143.24 28.8C143.24 29.472 143.24 30.216 143.24 31.032C143.24 32.112 143.42 32.832 143.78 33.192C144.164 33.528 144.596 33.696 145.076 33.696C145.628 33.696 146.036 33.588 146.3 33.372C146.564 33.132 146.744 32.832 146.84 32.472H147.056ZM140.36 31.752V26.208C139.928 26.52 139.388 26.856 138.74 27.216C138.092 27.552 137.456 27.924 136.832 28.332C136.232 28.74 135.704 29.196 135.248 29.7C134.816 30.18 134.6 30.732 134.6 31.356C134.6 31.98 134.816 32.544 135.248 33.048C135.68 33.552 136.244 33.804 136.94 33.804C137.564 33.804 138.116 33.732 138.596 33.588C139.076 33.444 139.52 33.168 139.928 32.76C140.216 32.496 140.36 32.16 140.36 31.752ZM155.093 36H146.705V35.604C147.809 35.532 148.541 35.424 148.901 35.28C149.261 35.112 149.441 34.836 149.441 34.452V13.752C149.441 13.56 149.417 13.416 149.369 13.32C149.345 13.224 149.249 13.116 149.081 12.996C148.865 12.876 148.541 12.696 148.109 12.456C147.677 12.192 147.317 12 147.029 11.88V11.664L152.177 9.972H152.429V34.632C152.429 34.872 152.477 35.052 152.573 35.172C152.693 35.292 152.861 35.376 153.077 35.424C153.293 35.472 153.569 35.508 153.905 35.532C154.241 35.532 154.637 35.556 155.093 35.604V36ZM170.901 30.528C170.805 31.056 170.589 31.656 170.253 32.328C169.917 32.976 169.461 33.576 168.885 34.128C168.309 34.68 167.613 35.136 166.797 35.496C166.005 35.856 165.117 36.036 164.133 36.036C162.909 36.036 161.793 35.808 160.785 35.352C159.777 34.896 158.913 34.26 158.193 33.444C157.497 32.604 156.957 31.632 156.573 30.528C156.189 29.4 155.997 28.212 155.997 26.964C155.997 25.956 156.177 24.96 156.537 23.976C156.897 22.968 157.401 22.068 158.049 21.276C158.721 20.484 159.525 19.848 160.461 19.368C161.421 18.864 162.477 18.612 163.629 18.612C164.565 18.612 165.441 18.732 166.257 18.972C167.097 19.212 167.817 19.584 168.417 20.088C169.041 20.568 169.545 21.18 169.929 21.924C170.313 22.668 170.541 23.544 170.613 24.552H159.057C159.057 24.744 159.045 24.972 159.021 25.236C158.997 25.476 158.985 25.728 158.985 25.992C158.985 27 159.129 27.972 159.417 28.908C159.705 29.82 160.125 30.636 160.677 31.356C161.229 32.052 161.925 32.604 162.765 33.012C163.605 33.42 164.577 33.624 165.681 33.624C166.881 33.624 167.925 33.324 168.813 32.724C169.725 32.1 170.325 31.344 170.613 30.456L170.901 30.528ZM167.049 22.464C167.049 21.576 166.737 20.82 166.113 20.196C165.513 19.548 164.697 19.224 163.665 19.224C162.993 19.224 162.381 19.428 161.829 19.836C161.301 20.22 160.833 20.676 160.425 21.204C160.041 21.732 159.741 22.272 159.525 22.824C159.309 23.352 159.177 23.76 159.129 24.048C159.681 24.048 160.173 24.048 160.604 24.048C161.037 24.048 161.457 24.048 161.865 24.048C162.297 24.024 162.741 24.012 163.197 24.012C163.653 23.988 164.157 23.976 164.709 23.976C165.069 23.976 165.405 23.964 165.717 23.94C166.029 23.916 166.305 23.856 166.545 23.76C166.713 23.568 166.833 23.388 166.905 23.22C167.001 23.052 167.049 22.8 167.049 22.464ZM187.697 32.472C187.673 32.928 187.565 33.372 187.373 33.804C187.181 34.236 186.929 34.632 186.617 34.992C186.305 35.328 185.933 35.592 185.501 35.784C185.093 35.952 184.637 36.036 184.133 36.036C183.317 36.036 182.585 35.796 181.937 35.316C181.313 34.836 181.001 33.996 181.001 32.796L180.929 32.76C180.737 33.072 180.473 33.42 180.137 33.804C179.825 34.188 179.441 34.548 178.985 34.884C178.553 35.22 178.061 35.496 177.509 35.712C176.981 35.904 176.393 36 175.745 36C175.361 36 174.965 35.952 174.557 35.856C174.173 35.736 173.813 35.544 173.477 35.28C173.165 34.992 172.901 34.632 172.685 34.2C172.493 33.768 172.397 33.24 172.397 32.616C172.397 31.944 172.661 31.296 173.189 30.672C173.741 30.048 174.413 29.484 175.205 28.98C175.997 28.476 176.693 28.044 177.293 27.684C177.917 27.324 178.457 27.024 178.913 26.784C179.369 26.52 179.765 26.304 180.101 26.136C180.461 25.944 180.761 25.776 181.001 25.632V21.924C181.001 21.876 180.953 21.768 180.857 21.6C180.785 21.408 180.641 21.216 180.425 21.024C180.233 20.832 179.957 20.664 179.597 20.52C179.237 20.352 178.769 20.268 178.193 20.268C177.809 20.268 177.425 20.34 177.041 20.484C176.681 20.604 176.357 20.772 176.069 20.988C175.781 21.18 175.553 21.384 175.385 21.6C175.217 21.792 175.133 21.96 175.133 22.104V23.724C175.133 24.06 174.953 24.36 174.593 24.624C174.257 24.888 173.885 25.02 173.477 25.02C173.093 25.02 172.757 24.888 172.469 24.624C172.205 24.336 172.073 24.012 172.073 23.652C172.073 23.364 172.145 23.1 172.289 22.86C172.433 22.62 172.613 22.404 172.829 22.212C173.045 22.02 173.273 21.852 173.513 21.708C173.777 21.564 174.005 21.432 174.197 21.312C174.821 20.952 175.457 20.604 176.105 20.268C176.753 19.932 177.365 19.644 177.941 19.404C178.541 19.164 179.081 18.972 179.561 18.828C180.065 18.684 180.473 18.612 180.785 18.612C181.409 18.612 181.997 18.78 182.549 19.116C183.101 19.428 183.497 19.824 183.737 20.304C183.833 20.472 183.893 20.772 183.917 21.204C183.941 21.612 183.953 22.02 183.953 22.428C183.953 23.292 183.941 24.072 183.917 24.768C183.917 25.464 183.917 26.136 183.917 26.784C183.917 27.432 183.905 28.104 183.881 28.8C183.881 29.472 183.881 30.216 183.881 31.032C183.881 32.112 184.061 32.832 184.421 33.192C184.805 33.528 185.237 33.696 185.717 33.696C186.269 33.696 186.677 33.588 186.941 33.372C187.205 33.132 187.385 32.832 187.481 32.472H187.697ZM181.001 31.752V26.208C180.569 26.52 180.029 26.856 179.381 27.216C178.733 27.552 178.097 27.924 177.473 28.332C176.873 28.74 176.345 29.196 175.889 29.7C175.457 30.18 175.241 30.732 175.241 31.356C175.241 31.98 175.457 32.544 175.889 33.048C176.321 33.552 176.885 33.804 177.581 33.804C178.205 33.804 178.757 33.732 179.237 33.588C179.717 33.444 180.161 33.168 180.569 32.76C180.857 32.496 181.001 32.16 181.001 31.752ZM200.306 20.52C200.306 21.048 200.15 21.492 199.838 21.852C199.526 22.188 199.166 22.356 198.758 22.356C198.374 22.356 198.062 22.296 197.822 22.176C197.606 22.032 197.414 21.876 197.246 21.708C197.078 21.54 196.898 21.396 196.706 21.276C196.514 21.132 196.25 21.06 195.914 21.06C195.626 21.06 195.338 21.168 195.05 21.384C194.786 21.576 194.534 21.828 194.294 22.14C194.054 22.452 193.838 22.812 193.646 23.22C193.454 23.604 193.286 23.976 193.142 24.336V34.704C193.214 34.92 193.37 35.088 193.61 35.208C193.85 35.328 194.114 35.412 194.402 35.46C194.714 35.508 195.026 35.544 195.338 35.568C195.674 35.568 195.962 35.592 196.202 35.64V36H188.138V35.64C188.69 35.592 189.158 35.484 189.542 35.316C189.95 35.148 190.154 34.872 190.154 34.488V22.32C190.154 22.128 190.13 21.984 190.082 21.888C190.058 21.792 189.962 21.684 189.794 21.564C189.578 21.444 189.326 21.3 189.038 21.132C188.75 20.94 188.462 20.784 188.174 20.664V20.448L192.89 18.612H193.106L193.034 23.616H193.106C193.226 23.328 193.418 22.908 193.682 22.356C193.946 21.804 194.282 21.252 194.69 20.7C195.098 20.124 195.59 19.632 196.166 19.224C196.742 18.816 197.402 18.612 198.146 18.612C198.746 18.612 199.25 18.792 199.658 19.152C200.09 19.512 200.306 19.968 200.306 20.52ZM218.393 36H211.049V35.604C211.697 35.556 212.213 35.484 212.597 35.388C212.981 35.268 213.173 35.016 213.173 34.632V25.56C213.173 24.168 212.909 23.052 212.381 22.212C211.853 21.348 210.965 20.916 209.717 20.916C208.925 20.916 208.265 21.084 207.737 21.42C207.209 21.756 206.621 22.248 205.973 22.896V34.704C206.021 34.944 206.105 35.124 206.225 35.244C206.345 35.34 206.489 35.412 206.657 35.46C206.825 35.508 207.017 35.544 207.233 35.568C207.449 35.568 207.677 35.592 207.917 35.64V36H200.969V35.64C201.521 35.592 201.989 35.484 202.373 35.316C202.781 35.148 202.985 34.872 202.985 34.488V22.104C202.985 21.912 202.961 21.768 202.913 21.672C202.889 21.576 202.793 21.468 202.625 21.348C202.409 21.228 202.157 21.096 201.869 20.952C201.581 20.784 201.293 20.64 201.005 20.52V20.304L205.721 18.612H205.937V22.5L206.009 22.536C206.273 22.128 206.597 21.696 206.981 21.24C207.389 20.76 207.845 20.328 208.349 19.944C208.853 19.56 209.405 19.248 210.005 19.008C210.605 18.744 211.229 18.612 211.877 18.612C213.269 18.612 214.337 19.128 215.081 20.16C215.825 21.192 216.197 22.524 216.197 24.156V34.74C216.197 34.908 216.269 35.052 216.413 35.172C216.581 35.292 216.773 35.388 216.989 35.46C217.205 35.508 217.433 35.556 217.673 35.604C217.937 35.628 218.177 35.652 218.393 35.676V36Z" fill="#3B82F6"/>
<path d="M6 14.2986L6.54804 14L24.5 23.8747L42.452 14L43 14.311V14.9232L25.0523 24.7955V44.6898L24.4999 45L23.9477 44.6899V24.7955L6 14.9232V14.2986Z" fill="#3B82F6"/>
<path d="M45.2178 12.5381V36.4609L24.5 48.4229L3.78223 36.4609V12.5381L24.5 0.576172L45.2178 12.5381Z" stroke="#3B82F6"/>
</svg>
