<svg width="512" height="512" viewBox="0 0 512 512" fill="none" xmlns="http://www.w3.org/2000/svg">
<path d="M277.673 112.111C284.761 111.838 291.856 112.19 298.881 113.162C329.613 117.631 357.318 134.104 375.923 158.97C389.203 176.569 397.226 197.568 399.068 219.537C399.381 223.494 399.728 228.935 399.178 232.777C399.403 232.771 399.628 232.768 399.853 232.768C420.928 232.966 441.073 241.472 455.913 256.438C471.401 271.91 479.976 293.65 480.001 315.473C479.923 338.18 470.853 359.933 454.776 375.968C443.881 386.89 430.166 394.566 415.158 398.141C403.988 400.706 392.798 400.106 381.381 400.108L348.338 400.105H228.876L152.788 400.11L130.595 400.12C123.907 400.12 117.04 400.228 110.406 399.313C100.437 398.028 90.7707 395.005 81.8442 390.383C60.1254 379.128 43.7574 359.718 36.3309 336.41C29.0697 313.853 30.9817 289.345 41.6537 268.188C51.9877 248.178 70.7469 231.605 92.2819 224.776C92.9254 223.131 93.5024 220.443 93.9842 218.632C94.7169 215.837 95.6559 213.1 96.7939 210.444C103.119 195.191 115.239 183.071 130.494 176.748C142.474 171.93 155.731 171.306 168.111 174.975C171.796 176.068 174.885 177.435 178.409 178.939C183.178 168.783 189.387 159.367 196.844 150.983C218.163 127.355 245.826 113.747 277.673 112.111ZM185.627 199.641C169.806 191.503 158.223 184.412 139.369 190.169C128.089 193.613 118.205 202.923 112.906 213.391C111.451 216.273 110.289 219.294 109.439 222.408C108.226 226.795 107.949 231.57 106.504 235.719C106.117 236.832 98.0422 239.214 96.7039 239.704C59.0997 253.45 39.1894 293.225 52.0804 331.875C58.5119 351.288 72.3902 367.355 90.6639 376.538C97.3282 379.863 104.483 382.098 111.855 383.155C118.992 384.143 125.137 384.003 132.301 384.003L153.552 383.993L226.376 383.988H343.718L376.396 383.995C403.236 383.995 423.083 384.405 443.771 363.775C456.701 350.838 463.966 333.293 463.971 315C463.968 297.02 456.826 279.775 444.113 267.058C433.281 256.21 418.968 249.532 403.696 248.197C398.633 247.726 388.208 247.531 383.121 247.973C383.486 239.767 383.671 225.418 382.838 217.376C380.741 196.401 371.958 176.657 357.783 161.056C339.863 141.23 314.803 129.329 288.113 127.97C283.921 127.815 279.721 127.855 275.528 128.09C269.696 128.742 265.248 129.297 259.521 130.682C237.683 136.047 218.269 148.562 204.367 166.235C198.212 173.937 193.72 182.133 189.631 191.055C188.41 193.72 186.669 196.959 185.627 199.641Z" fill="black"/>
</svg>
